<?xml version="1.0" encoding="UTF-8"?>
<svg id="logo" xmlns="http://www.w3.org/2000/svg" viewBox="0 0 163.85 54.86">
  <defs>
    <style>
      .cls-1 {
        fill: none;
        stroke: #231815;
        stroke-miterlimit: 10;
      }

      .cls-2 {
        fill: #231815;
        stroke-width: 0px;
      }
    </style>
  </defs>
  <g id="logo-2" data-name="logo">
    <path id="_" class="cls-2" d="m160.21,26.27h-14.04v-1.11h14.04v1.11Z"/>
    <g>
      <path id="m" class="cls-2" d="m22.43,26.17h-3.48V3.62l-6.82,15.35h-2.11L3.25,3.62v22.55H0V0h4.75l6.54,14.57L17.6,0h4.83v26.17Z"/>
      <path id="i" class="cls-2" d="m34.45,3.79h-3.32V.2h3.32v3.59Zm0,22.18h-3.32V7.32h3.32v18.65Z"/>
      <path id="n" class="cls-2" d="m46.26,9.69c1.65-1.86,3.51-2.79,5.57-2.79,4.21,0,6.31,2.29,6.31,6.87v12.2h-3.32v-12.06c0-1.52-.27-2.62-.82-3.29s-1.44-1-2.68-1c-1.69,0-3.38,1-5.06,2.99v13.36h-3.32V7.32h3.32v2.37Z"/>
      <path id="o" class="cls-2" d="m74.12,6.9c2.66,0,4.78.85,6.37,2.55,1.59,1.7,2.38,4.1,2.38,7.21s-.79,5.49-2.38,7.2c-1.59,1.71-3.71,2.56-6.37,2.56s-4.77-.85-6.35-2.56-2.38-4.1-2.38-7.2.79-5.51,2.38-7.21,3.71-2.55,6.35-2.55Zm0,16.91c1.58,0,2.87-.6,3.85-1.8s1.48-2.99,1.48-5.35-.49-4.17-1.48-5.37-2.27-1.8-3.85-1.8-2.87.6-3.85,1.8-1.48,2.99-1.48,5.37.49,4.15,1.48,5.35,2.27,1.8,3.85,1.8Z"/>
      <path id="r" class="cls-2" d="m99.87,10.34c-.47-.14-1.14-.21-2.02-.21-1.69,0-3.13.88-4.34,2.65v13.18h-3.32V7.32h3.32v2.6c1.39-2.02,3.01-3.02,4.85-3.02.47,0,.97.05,1.51.14v3.3Z"/>
      <path id="i-2" data-name="i" class="cls-2" d="m109.09,3.79h-3.32V.2h3.32v3.59Zm0,22.18h-3.32V7.32h3.32v18.65Z"/>
      <path id="_-2" data-name="&amp;apos;" class="cls-2" d="m121.6.06l-2.46,7.84h-2.07L119.02.06h2.58Z"/>
      <path id="s" class="cls-2" d="m133.71,26.41c-5.1,0-7.76-2-8-6.01h3.32c.02,2.27,1.57,3.41,4.64,3.41,1.37,0,2.42-.28,3.14-.85s1.08-1.28,1.08-2.14-.35-1.44-1.05-1.78-2.15-.79-4.35-1.34-3.8-1.17-4.82-1.85-1.52-1.88-1.52-3.59c0-1.55.63-2.83,1.89-3.84s2.94-1.52,5.05-1.52c4.89,0,7.38,1.74,7.49,5.22h-3.3c-.12-1.76-1.44-2.64-3.96-2.64-1.11,0-2.04.21-2.77.63s-1.1,1.04-1.1,1.85c0,.73.28,1.25.84,1.57s1.97.76,4.23,1.3,3.93,1.18,5.03,1.91,1.64,1.98,1.64,3.76-.68,3.11-2.03,4.23-3.17,1.68-5.46,1.68Z"/>
      <path id="_-3" data-name="_" class="cls-2" d="m160.21,26.27h-14.04v-1.11h14.04v1.11Z"/>
      <path id="p" class="cls-2" d="m3.06,44.61v9.53H.11v-25.21h6.93c2.7,0,4.78.66,6.27,1.97s2.22,3.16,2.22,5.55-.82,4.35-2.47,5.87-3.87,2.29-6.67,2.29h-3.32Zm0-13.01v10.34h3.09c2.04,0,3.59-.47,4.67-1.4s1.61-2.25,1.61-3.95c0-3.33-1.97-4.99-5.91-4.99h-3.46Z"/>
      <path id="o-2" data-name="o" class="cls-2" d="m29.42,35.35c2.66,0,4.78.85,6.37,2.55s2.38,4.1,2.38,7.21-.79,5.49-2.38,7.2-3.71,2.56-6.37,2.56-4.77-.85-6.35-2.56-2.38-4.1-2.38-7.2.79-5.51,2.38-7.21,3.71-2.55,6.35-2.55Zm0,16.91c1.58,0,2.87-.6,3.85-1.8s1.48-2.99,1.48-5.35-.49-4.17-1.48-5.37-2.27-1.8-3.85-1.8-2.87.6-3.85,1.8-1.48,2.99-1.48,5.37.49,4.15,1.48,5.35,2.27,1.8,3.85,1.8Z"/>
      <path id="r-2" data-name="r" class="cls-2" d="m56.46,38.79c-.47-.14-1.14-.21-2.02-.21-1.69,0-3.13.88-4.34,2.65v13.18h-3.32v-18.65h3.32v2.6c1.39-2.02,3.01-3.02,4.85-3.02.47,0,.97.05,1.51.14v3.3Z"/>
      <path id="t" class="cls-2" d="m73.42,54.46c-.73.14-1.52.21-2.37.21-1.36,0-2.36-.24-2.99-.73s-1.03-1.11-1.18-1.87-.23-1.8-.23-3.11v-10.58h-2.3v-2.6h2.3v-4.64h3.3v4.64h3.02v2.6h-3.02v10.76c0,1.28.16,2.09.48,2.43s.76.52,1.33.52,1.12-.05,1.65-.14v2.51Z"/>
      <path id="f" class="cls-2" d="m86.65,38.37v16.05h-3.3v-16.05h-2.74v-2.6h2.74v-1.65c0-3.94,1.74-5.91,5.22-5.91,1.07,0,1.89.07,2.48.21v2.88c-.66-.12-1.32-.18-2-.18-.81,0-1.41.23-1.8.68s-.59,1.23-.59,2.35v1.62h3.53v2.6h-3.53Z"/>
      <path id="o-3" data-name="o" class="cls-2" d="m105.22,35.35c2.66,0,4.78.85,6.37,2.55s2.38,4.1,2.38,7.21-.79,5.49-2.38,7.2-3.71,2.56-6.37,2.56-4.77-.85-6.35-2.56-2.38-4.1-2.38-7.2.79-5.51,2.38-7.21,3.71-2.55,6.35-2.55Zm0,16.91c1.58,0,2.87-.6,3.85-1.8s1.48-2.99,1.48-5.35-.49-4.17-1.48-5.37-2.27-1.8-3.85-1.8-2.87.6-3.85,1.8-1.48,2.99-1.48,5.37.49,4.15,1.48,5.35,2.27,1.8,3.85,1.8Z"/>
      <path id="l" class="cls-2" d="m125.44,54.42h-3.32v-25.77h3.32v25.77Z"/>
      <path id="i-3" data-name="i" class="cls-2" d="m138.54,32.24h-3.32v-3.59h3.32v3.59Zm0,22.18h-3.32v-18.65h3.32v18.65Z"/>
      <path id="o-4" data-name="o" class="cls-2" d="m155.09,35.35c2.66,0,4.79.85,6.37,2.55s2.38,4.1,2.38,7.21-.79,5.49-2.38,7.2-3.71,2.56-6.37,2.56-4.77-.85-6.35-2.56-2.38-4.1-2.38-7.2.79-5.51,2.38-7.21,3.71-2.55,6.35-2.55Zm0,16.91c1.58,0,2.87-.6,3.85-1.8s1.48-2.99,1.48-5.35-.49-4.17-1.48-5.37-2.27-1.8-3.85-1.8-2.87.6-3.85,1.8-1.48,2.99-1.48,5.37.49,4.15,1.48,5.35,2.27,1.8,3.85,1.8Z"/>
    </g>
    <g>
      <path id="m-2" data-name="m" class="cls-1" d="m22.43,26.17h-3.48V3.62l-6.82,15.35h-2.11L3.25,3.62v22.55H0V0h4.75l6.54,14.57L17.6,0h4.83v26.17Z"/>
      <path id="i-4" data-name="i" class="cls-1" d="m34.45,3.79h-3.32V.2h3.32v3.59Zm0,22.18h-3.32V7.32h3.32v18.65Z"/>
      <path id="n-2" data-name="n" class="cls-1" d="m46.26,9.69c1.65-1.86,3.51-2.79,5.57-2.79,4.21,0,6.31,2.29,6.31,6.87v12.2h-3.32v-12.06c0-1.52-.27-2.62-.82-3.29s-1.44-1-2.68-1c-1.69,0-3.38,1-5.06,2.99v13.36h-3.32V7.32h3.32v2.37Z"/>
      <path id="o-5" data-name="o" class="cls-1" d="m74.12,6.9c2.66,0,4.78.85,6.37,2.55,1.59,1.7,2.38,4.1,2.38,7.21s-.79,5.49-2.38,7.2c-1.59,1.71-3.71,2.56-6.37,2.56s-4.77-.85-6.35-2.56-2.38-4.1-2.38-7.2.79-5.51,2.38-7.21,3.71-2.55,6.35-2.55Zm0,16.91c1.58,0,2.87-.6,3.85-1.8s1.48-2.99,1.48-5.35-.49-4.17-1.48-5.37-2.27-1.8-3.85-1.8-2.87.6-3.85,1.8-1.48,2.99-1.48,5.37.49,4.15,1.48,5.35,2.27,1.8,3.85,1.8Z"/>
      <path id="r-3" data-name="r" class="cls-1" d="m99.87,10.34c-.47-.14-1.14-.21-2.02-.21-1.69,0-3.13.88-4.34,2.65v13.18h-3.32V7.32h3.32v2.6c1.39-2.02,3.01-3.02,4.85-3.02.47,0,.97.05,1.51.14v3.3Z"/>
      <path id="i-5" data-name="i" class="cls-1" d="m109.09,3.79h-3.32V.2h3.32v3.59Zm0,22.18h-3.32V7.32h3.32v18.65Z"/>
      <path id="_-4" data-name="&amp;apos;" class="cls-1" d="m121.6.06l-2.46,7.84h-2.07L119.02.06h2.58Z"/>
      <path id="s-2" data-name="s" class="cls-1" d="m133.71,26.41c-5.1,0-7.76-2-8-6.01h3.32c.02,2.27,1.57,3.41,4.64,3.41,1.37,0,2.42-.28,3.14-.85s1.08-1.28,1.08-2.14-.35-1.44-1.05-1.78-2.15-.79-4.35-1.34-3.8-1.17-4.82-1.85-1.52-1.88-1.52-3.59c0-1.55.63-2.83,1.89-3.84s2.94-1.52,5.05-1.52c4.89,0,7.38,1.74,7.49,5.22h-3.3c-.12-1.76-1.44-2.64-3.96-2.64-1.11,0-2.04.21-2.77.63s-1.1,1.04-1.1,1.85c0,.73.28,1.25.84,1.57s1.97.76,4.23,1.3,3.93,1.18,5.03,1.91,1.64,1.98,1.64,3.76-.68,3.11-2.03,4.23-3.17,1.68-5.46,1.68Z"/>
      <path id="_-5" data-name="_" class="cls-1" d="m160.21,26.27h-14.04v-1.11h14.04v1.11Z"/>
      <path id="p-2" data-name="p" class="cls-1" d="m3.06,44.61v9.53H.11v-25.21h6.93c2.7,0,4.78.66,6.27,1.97s2.22,3.16,2.22,5.55-.82,4.35-2.47,5.87-3.87,2.29-6.67,2.29h-3.32Zm0-13.01v10.34h3.09c2.04,0,3.59-.47,4.67-1.4s1.61-2.25,1.61-3.95c0-3.33-1.97-4.99-5.91-4.99h-3.46Z"/>
      <path id="o-6" data-name="o" class="cls-1" d="m29.42,35.35c2.66,0,4.78.85,6.37,2.55s2.38,4.1,2.38,7.21-.79,5.49-2.38,7.2-3.71,2.56-6.37,2.56-4.77-.85-6.35-2.56-2.38-4.1-2.38-7.2.79-5.51,2.38-7.21,3.71-2.55,6.35-2.55Zm0,16.91c1.58,0,2.87-.6,3.85-1.8s1.48-2.99,1.48-5.35-.49-4.17-1.48-5.37-2.27-1.8-3.85-1.8-2.87.6-3.85,1.8-1.48,2.99-1.48,5.37.49,4.15,1.48,5.35,2.27,1.8,3.85,1.8Z"/>
      <path id="r-4" data-name="r" class="cls-1" d="m56.46,38.79c-.47-.14-1.14-.21-2.02-.21-1.69,0-3.13.88-4.34,2.65v13.18h-3.32v-18.65h3.32v2.6c1.39-2.02,3.01-3.02,4.85-3.02.47,0,.97.05,1.51.14v3.3Z"/>
      <path id="t-2" data-name="t" class="cls-1" d="m73.42,54.46c-.73.14-1.52.21-2.37.21-1.36,0-2.36-.24-2.99-.73s-1.03-1.11-1.18-1.87-.23-1.8-.23-3.11v-10.58h-2.3v-2.6h2.3v-4.64h3.3v4.64h3.02v2.6h-3.02v10.76c0,1.28.16,2.09.48,2.43s.76.52,1.33.52,1.12-.05,1.65-.14v2.51Z"/>
      <path id="f-2" data-name="f" class="cls-1" d="m86.65,38.37v16.05h-3.3v-16.05h-2.74v-2.6h2.74v-1.65c0-3.94,1.74-5.91,5.22-5.91,1.07,0,1.89.07,2.48.21v2.88c-.66-.12-1.32-.18-2-.18-.81,0-1.41.23-1.8.68s-.59,1.23-.59,2.35v1.62h3.53v2.6h-3.53Z"/>
      <path id="o-7" data-name="o" class="cls-1" d="m105.22,35.35c2.66,0,4.78.85,6.37,2.55s2.38,4.1,2.38,7.21-.79,5.49-2.38,7.2-3.71,2.56-6.37,2.56-4.77-.85-6.35-2.56-2.38-4.1-2.38-7.2.79-5.51,2.38-7.21,3.71-2.55,6.35-2.55Zm0,16.91c1.58,0,2.87-.6,3.85-1.8s1.48-2.99,1.48-5.35-.49-4.17-1.48-5.37-2.27-1.8-3.85-1.8-2.87.6-3.85,1.8-1.48,2.99-1.48,5.37.49,4.15,1.48,5.35,2.27,1.8,3.85,1.8Z"/>
      <path id="l-2" data-name="l" class="cls-1" d="m125.44,54.42h-3.32v-25.77h3.32v25.77Z"/>
      <path id="i-6" data-name="i" class="cls-1" d="m138.54,32.24h-3.32v-3.59h3.32v3.59Zm0,22.18h-3.32v-18.65h3.32v18.65Z"/>
      <path id="o-8" data-name="o" class="cls-1" d="m155.09,35.35c2.66,0,4.79.85,6.37,2.55s2.38,4.1,2.38,7.21-.79,5.49-2.38,7.2-3.71,2.56-6.37,2.56-4.77-.85-6.35-2.56-2.38-4.1-2.38-7.2.79-5.51,2.38-7.21,3.71-2.55,6.35-2.55Zm0,16.91c1.58,0,2.87-.6,3.85-1.8s1.48-2.99,1.48-5.35-.49-4.17-1.48-5.37-2.27-1.8-3.85-1.8-2.87.6-3.85,1.8-1.48,2.99-1.48,5.37.49,4.15,1.48,5.35,2.27,1.8,3.85,1.8Z"/>
    </g>
  </g>
</svg>