<?xml version="1.0" encoding="UTF-8"?>
<svg id="logo" xmlns="http://www.w3.org/2000/svg" viewBox="0 0 58 41">
  <defs>
    <style>
      .cls-1 {
        fill: none;
        stroke: #231815;
        stroke-miterlimit: 10;
      }

      .cls-2 {
        fill: #231815;
        stroke-width: 0px;
      }
    </style>
  </defs>
  <g id="logo-2" data-name="logo">
    <g>
      <path id="m" class="cls-2" d="m31.68,37.7h-3.36V9.9l-6.59,18.92h-2.04l-6.54-18.92v27.8h-3.14V5.44h4.59l6.32,17.96,6.1-17.96h4.67v32.26Z"/>
      <path id="i" class="cls-2" d="m32.02,26.6l-3.21-2.55,14.29-18,3.21,2.55-14.29,18Z"/>
      <path id="i-2" data-name="i" class="cls-2" d="m34.18,20.05l3.55-2.04,10.54,18.36-3.55,2.04-10.54-18.36Z"/>
    </g>
    <g>
      <path id="m-2" data-name="m" class="cls-1" d="m31.68,37.7h-3.36V9.9l-6.59,18.92h-2.04l-6.54-18.92v27.8h-3.14V5.44h4.59l6.32,17.96,6.1-17.96h4.67v32.26Z"/>
      <path id="i-3" data-name="i" class="cls-1" d="m32.02,26.6l-3.21-2.55,14.29-18,3.21,2.55-14.29,18Z"/>
      <path id="i-4" data-name="i" class="cls-1" d="m34.18,20.05l3.55-2.04,10.54,18.36-3.55,2.04-10.54-18.36Z"/>
    </g>
  </g>
</svg>